<svg xmlns="http://www.w3.org/2000/svg" viewBox="0 0 512 512" xml:space="preserve"><path style="fill:#f4a026" d="M20.677 256 188.13 383.348l-13.128-89.276h196.854v-78.769H175.002l13.128-86.651z"/><path style="fill:#61acd2" d="M121.108 446.359H438.81V65.641H121.108V13.128h344.027c14.501 0 26.188 11.755 26.188 26.256v433.231c0 14.501-11.687 26.256-26.188 26.256H121.108z"/><path d="M188.131 396.476a13.128 13.128 0 0 0 12.988-15.039L190.201 307.2h182.311c7.249 0 12.472-5.879 12.472-13.128v-78.769c0-7.249-5.222-13.128-12.472-13.128H190.268l10.841-71.555a13.13 13.13 0 0 0-20.927-12.416L12.729 245.55a13.132 13.132 0 0 0 0 20.9l167.453 127.348a13.13 13.13 0 0 0 7.949 2.678m-26.118-100.494 8.447 57.433L42.365 256l127.933-97.293-8.276 54.629a13.12 13.12 0 0 0 3.026 10.526 13.12 13.12 0 0 0 9.954 4.569h183.727v52.513H175.002a13.13 13.13 0 0 0-12.989 15.038"/><path d="M465.135 0H121.764c-7.249 0-13.785 5.879-13.785 13.128v52.513c0 7.249 6.535 13.128 13.785 13.128h303.918v354.462H121.764c-7.249 0-13.785 5.879-13.785 13.128v52.513c0 7.249 6.535 13.128 13.785 13.128h343.371c22.041 0 39.316-17.668 39.316-39.385V39.385C504.451 17.668 487.176 0 465.135 0m13.06 472.615c0 7.117-5.625 13.128-13.06 13.128H134.236v-26.256h305.231c7.249 0 12.472-5.879 12.472-13.128V65.641c0-7.249-5.222-13.128-12.472-13.128H134.236V26.256h330.899c7.435 0 13.06 6.011 13.06 13.128z"/></svg>