<svg width="56" height="46" viewBox="0 0 56 46" fill="none" xmlns="http://www.w3.org/2000/svg"><path d="M34.235 3.251c1.08-1.124.47-2.974-1.084-3.108A39 39 0 0 0 29.801 0C13.341 0 0 10.252 0 22.898c0 3.5 1.022 6.818 2.85 9.785.628 1.018 2.037 1.092 2.866.23zm20.86 9.272c-1.74-2.91-5.276-5.65-7.873-7.312-.98-.628-2.245-.44-3.06.39-9.658 9.832-25.825 26.249-32.112 32.442-1.078 1.061-1.054 2.826.199 3.673 3.978 2.69 8.663 3.87 11.236 4.191.7.088 1.38-.181 1.884-.675 9.406-9.239 24.835-25.33 29.348-30.144.662-.706.875-1.734.378-2.565" fill="#72D627"/></svg>