<svg xmlns="http://www.w3.org/2000/svg" viewBox="0 0 94 73" width="94" height="73" style="width:100%;height:100%;transform:translate3d(0,0,0);content-visibility:visible"><defs><clipPath id="a"><path d="M0 0h94v73H0z"/></clipPath><clipPath id="b"><path d="M0 0h1000v1038H0z"/></clipPath><clipPath id="c"><path d="M0 0h1338v738H0z"/></clipPath></defs><g clip-path="url(#a)"><g clip-path="url(#b)" transform="translate(-84.5 -101.535)scale(.265)" style="display:block"><path stroke-linecap="round" class="animated-speaker-icon-lottie" stroke="#FFF" stroke-width="22.486" d="M48.881-88.134C79.823-70.922 100.779-37.888 100.779 0c0 37.911-20.981 70.962-51.954 88.165" fill="none" transform="translate(516.22 522.4)scale(1.36)" opacity=".907" style="display:block"/><path stroke-linecap="round" class="animated-speaker-icon-lottie" stroke="#FFF" stroke-width="20.5" d="M24.131-42.809C39.056-34.371 49.141-18.354 49.141 0c0 18.387-10.121 34.429-25.091 42.854" fill="none" transform="translate(516.22 522.4)scale(1.36)" style="display:block"/><g clip-path="url(#c)" transform="matrix(1.03704 0 0 .96296 136.536 163.668)" style="display:block"><g style="display:block"><path class="animated-speaker-icon-lottie" fill="#FFF" d="M211.179 303.628h49.02c18.18 0 32.94 14.76 32.94 32.94v75.66c0 18.18-14.76 32.94-32.94 32.94h-49.02c-18.18 0-32.94-14.76-32.94-32.94v-75.66c0-18.18 14.76-32.94 32.94-32.94m19.872.108 91.2-64.02a13.548 13.548 0 0 1 21.36 11.1v245.7c0 7.5-6.06 13.56-13.56 13.56-2.76 0-5.46-.84-7.8-2.46l-91.2-64.02c-3.6-2.52-5.76-6.66-5.76-11.1v-117.66c0-4.38 2.16-8.52 5.76-11.1"/><g transform="matrix(6 0 0 6 260.937 373.678)"/></g></g></g></g></svg>