<svg width="800" height="800" viewBox="0 0 256 256" xmlns="http://www.w3.org/2000/svg"><defs><style>.cls-2{fill:#f88}.cls-3{fill:#2fb1ea}.cls-4{fill:#fff}.cls-7{fill:#d4ffd4}.cls-8{fill:#ffbdbd}.cls-9{fill:#bbf1ff}.cls-10{fill:#fff4c5}</style></defs><g id="Layer_2" data-name="Layer 2"><circle cx="111.06" cy="128" r="84" style="fill:#f97171"/><circle class="cls-2" cx="108.01" cy="124.96" r="78.67"/><path class="cls-3" d="M111.06 214a86 86 0 1 1 86-86 86.1 86.1 0 0 1-86 86m0-168a82 82 0 1 0 82 82 82.09 82.09 0 0 0-82-82"/><path class="cls-4" d="M111.06 192a64 64 0 1 1 64-64 64.07 64.07 0 0 1-64 64"/><path class="cls-3" d="M111.06 194a66 66 0 1 1 66-66 66.07 66.07 0 0 1-66 66m0-128a62 62 0 1 0 62 62 62.07 62.07 0 0 0-62-62"/><path class="cls-2" d="M111.06 172a44 44 0 1 1 44-44 44 44 0 0 1-44 44"/><path class="cls-3" d="M111.06 174a46 46 0 1 1 46-46 46.05 46.05 0 0 1-46 46m0-88a42 42 0 1 0 42 42 42 42 0 0 0-42-42"/><path class="cls-4" d="M111.06 152a24 24 0 1 1 24-24 24 24 0 0 1-24 24"/><path class="cls-3" d="M111.06 154a26 26 0 1 1 26-26 26 26 0 0 1-26 26m0-48a22 22 0 1 0 22 22 22 22 0 0 0-22-22"/><circle class="cls-2" cx="111.06" cy="128" r="4"/><path class="cls-3" d="M111.06 134a6 6 0 1 1 6-6 6 6 0 0 1-6 6m0-8a2 2 0 1 0 2 2 2 2 0 0 0-2-2"/><path d="M226.94 112.52h-22.6a2 2 0 0 0-1 .29L188.08 122h-49.51l2.07-3.56a2 2 0 0 0-2.49-2.86l-25.85 10.57a2 2 0 0 0 0 3.7l25.85 10.56a2 2 0 0 0 2.49-2.86l-2.07-3.55h49.51l15.23 9.19a2 2 0 0 0 1 .29h22.6a2 2 0 0 0 1.41-3.41L216.29 128l12.06-12.07a2 2 0 0 0-1.41-3.41" style="fill:#6dd0fc"/><path d="M226.94 112.52h-22.6a2 2 0 0 0-1 .29L188.08 122h-49.51l2.07-3.56a2 2 0 0 0-2.49-2.86l-25.85 10.57c-1.66.68 2.75-.83 4.41-.15l13.42 5.59a2 2 0 0 0 2.49-2.86l55.47-.38 15.23 9.19a2 2 0 0 0 1 .29h18.81a2 2 0 0 0 1.41-3.41l-8.25-6.42 12.06-12.07a2 2 0 0 0-1.41-3.41" style="fill:#a4ecff"/><path class="cls-3" d="M226.94 145.48h-22.6a4 4 0 0 1-2.07-.58l-14.74-8.9H142l.32.55a4 4 0 0 1-5 5.71l-25.78-10.56a4 4 0 0 1 0-7.41l25.85-10.56a4 4 0 0 1 5 5.71l-.39.56h45.48l14.76-8.9a4 4 0 0 1 2.07-.58h22.6a4 4 0 0 1 2.83 6.83L219.12 128l10.65 10.65a4 4 0 0 1-2.83 6.83M138.57 132h49.51a2 2 0 0 1 1 .29l15.23 9.19h22.6l-12.06-12.07a2 2 0 0 1 0-2.83l12.06-12.07h-22.6l-15.23 9.19a2 2 0 0 1-1 .29h-49.51a2 2 0 0 1-1.73-3l2.07-3.56L113.06 128l25.85 10.56-2.07-3.56a2 2 0 0 1 1.73-3"/><circle class="cls-7" cx="190.5" cy="188" r="5"/><circle class="cls-7" cx="170.5" cy="38" r="4"/><circle class="cls-7" cx="223.5" cy="209" r="3"/><circle class="cls-7" cx="20.5" cy="88" r="2"/><circle class="cls-7" cx="198.5" cy="46" r="1"/><circle class="cls-8" cx="126.5" cy="11" r="5"/><circle class="cls-8" cx="6.5" cy="124" r="4"/><circle class="cls-8" cx="234.5" cy="100" r="3"/><circle class="cls-8" cx="53.5" cy="214" r="2"/><circle class="cls-8" cx="232.5" cy="69" r="1"/><circle class="cls-9" cx="248.5" cy="130" r="5"/><circle class="cls-9" cx="59.5" cy="34" r="4"/><circle class="cls-9" cx="26.5" cy="184" r="3"/><circle class="cls-9" cx="167.5" cy="221" r="2"/><circle class="cls-9" cx="208.5" cy="83" r="1"/><circle class="cls-10" cx="138.5" cy="245" r="5"/><circle class="cls-10" cx="86.5" cy="235" r="4"/><circle class="cls-10" cx="195.5" cy="69" r="3"/><circle class="cls-10" cx="96.5" cy="18" r="2"/><circle class="cls-10" cx="24.5" cy="52" r="1"/></g></svg>